# This file uses centimeters as units for non-parametric coordinates.

mtllib coffe table.mtl
g default
v -5.466383 0.064560 -5.702547
v -0.130029 0.064560 -5.702547
v -5.466383 5.424879 -5.702547
v -0.130029 5.424879 -5.702547
v -5.466383 5.424879 -7.707554
v -0.130029 5.424879 -7.707554
v -5.466381 0.064560 -7.707554
v -0.130029 0.064560 -7.707554
v -5.466383 0.602762 -5.702547
v -5.466383 2.153452 -5.702547
v -0.130029 2.153452 -5.702547
v -0.130029 0.602762 -5.702547
v -0.130029 0.602762 -7.707554
v -0.130029 2.153452 -7.707554
v -5.466381 0.602762 -7.707554
v -5.466383 2.153452 -7.707554
v -5.466383 5.255142 -7.707554
v -5.466383 3.704451 -7.707554
v -0.130029 3.704451 -7.707554
v -0.130029 5.255142 -7.707554
v -0.130029 3.704451 -5.702547
v -0.130029 5.255142 -5.702547
v -5.466383 3.704451 -5.702547
v -5.466383 5.255142 -5.702547
v -5.281373 0.695872 -5.702547
v -5.281373 2.060341 -5.702547
v -0.315039 0.695872 -5.702547
v -0.315039 2.060341 -5.702547
v -0.315039 5.162031 -5.702547
v -0.315039 3.797561 -5.702547
v -5.281373 5.162031 -5.702547
v -5.281373 3.797561 -5.702547
v -0.315039 2.246579 -5.702547
v -5.281373 2.246579 -5.702547
v -0.315039 3.611322 -5.702547
v -5.281373 3.611322 -5.702547
v -5.281373 0.695872 -7.549136
v -5.281373 2.060341 -7.549136
v -0.315039 0.695872 -7.549136
v -0.315039 2.060341 -7.549136
v -0.315039 5.162031 -7.549136
v -0.315039 3.797561 -7.549136
v -5.281373 5.162031 -7.549136
v -5.281373 3.797561 -7.549136
v -0.315039 2.246579 -7.549136
v -5.281373 2.246579 -7.549136
v -0.315039 3.611322 -7.549136
v -5.281373 3.611322 -7.549136
v -5.284292 0.064560 -5.702547
v -0.312120 0.064560 -5.702547
v -0.312120 0.456875 -5.702547
v -5.284292 0.456875 -5.702547
v -0.312120 0.064560 -5.803931
v -0.312120 0.456875 -5.803931
v -5.284292 0.456875 -5.803931
v -5.284292 0.064560 -5.803931
vt 1.283970 0.390861
vt 1.518459 0.575451
vt 1.705919 0.576453
vt 1.895032 0.398045
vt 1.353103 0.407397
vt 0.047129 0.091753
vt 1.173255 0.577735
vt 1.733314 0.397181
vt 0.675292 0.794361
vt 0.675114 0.753120
vt 0.825221 0.752473
vt 0.825398 0.793714
vt 1.519045 0.465738
vt 0.675140 0.161189
vt 1.706783 0.414734
vt 1.784363 0.576423
vt 1.277276 0.578290
vt 1.837335 0.397737
vt 1.339803 0.516798
vt 1.339525 0.568803
vt 1.888384 0.576979
vt 1.706227 0.518755
vt 1.518489 0.569759
vt 0.675081 0.122712
vt 0.338029 0.756923
vt 0.338282 0.798462
vt 0.187091 0.799382
vt 0.186839 0.757844
vt 0.186939 0.395918
vt 0.334837 0.396026
vt 0.334807 0.436668
vt 0.186909 0.436560
vt 1.506154 0.394462
vt 1.706879 0.396685
vt 1.715264 0.397084
vt 1.104202 0.389900
vt 0.674444 0.597521
vt 0.519693 0.795030
vt 0.980819 0.751804
vt 0.826068 0.949313
vt 0.339236 0.955183
vt 0.494750 0.755969
vt 0.030370 0.800337
vt 0.185884 0.601122
vt 0.488145 0.396138
vt 0.187051 0.242609
vt 0.334695 0.589977
vt 0.033600 0.436448
vt 1.493993 0.411876
vt 1.501435 0.394431
vt 1.357847 0.403647
vt 1.357914 0.393479
vt 1.494042 0.404550
vt 1.494109 0.394382
vt 1.365173 0.403696
vt 1.365240 0.393528
vt 1.346268 0.467938
vt 0.069008 0.102496
vt 0.033630 0.395806
vt 1.346024 0.513708
vt 0.653022 0.111907
vt 1.512823 0.468828
vt 1.512545 0.520843
vt 0.064325 0.140382
vt 1.345746 0.565713
vt 1.512301 0.566603
vt 0.030117 0.758798
vt 0.495003 0.797507
vt 0.188046 0.956104
vt 0.186797 0.589869
vt 0.334949 0.242717
vt 0.488116 0.436780
vt 1.340080 0.464782
vt 0.068791 0.080581
vt 1.346302 0.461692
vt 0.653202 0.074784
vt 1.513101 0.416822
vt 0.059374 0.174926
vt 0.653419 0.096699
vt 0.675081 0.085524
vt 1.512857 0.462582
vt 0.824551 0.596875
vt 0.519516 0.753789
vt 1.346546 0.415933
vt 0.037211 0.163889
vt 0.058905 0.146357
vt 0.653299 0.143841
vt 1.519323 0.413733
vt 0.653071 0.172413
vt 1.512579 0.514597
vt 0.653261 0.133992
vt 1.518767 0.517754
vt 1.345990 0.519953
vt 0.042266 0.129578
vt 0.064086 0.118296
vt 0.675961 0.949959
vt 0.980996 0.793044
vt 0.337074 0.600202
vt 1.103200 0.577360
vt 1.121250 0.577457
vt 1.889340 0.398014
vt 1.225271 0.578012
vt 1.785319 0.397459
vt 1.282969 0.578321
vt 1.365124 0.411021
vt 1.353195 0.393448
vt 1.122251 0.389997
vt 1.506062 0.408411
vt 1.519419 0.395683
vt 1.250912 0.602741
vt 1.798033 0.602741
vt 1.798033 0.726723
vt 1.250912 0.726723
vt 1.501367 0.404599
vt 1.339494 0.574495
vt 1.278278 0.390830
vt 1.340358 0.412777
vt 1.174257 0.390275
vt 1.340080 0.464782
vt 1.226272 0.390552
vt 1.339803 0.516798
vt 1.894076 0.577009
vt 1.705949 0.570761
vt 1.714308 0.576049
vt 1.732358 0.576145
vt 1.706505 0.466740
vt 1.836378 0.576701
vn 0.000000 1.000000 0.000000
vn 0.000000 1.000000 0.000000
vn 0.000000 1.000000 0.000000
vn 0.000000 1.000000 0.000000
vn -1.000000 0.000000 0.000000
vn -1.000000 0.000000 0.000000
vn -1.000000 0.000000 0.000000
vn -1.000000 0.000000 0.000000
vn 0.000000 0.000000 1.000000
vn 0.000000 0.000000 1.000000
vn 0.000000 0.000000 1.000000
vn 0.000000 0.000000 1.000000
vn 1.000000 0.000000 0.000000
vn 1.000000 0.000000 0.000000
vn 1.000000 0.000000 0.000000
vn 1.000000 0.000000 0.000000
vn 0.000000 0.000000 -1.000000
vn 0.000000 0.000000 -1.000000
vn 0.000000 0.000000 -1.000000
vn 0.000000 0.000000 -1.000000
vn -1.000000 0.000000 0.000000
vn -1.000000 0.000000 0.000000
vn -1.000000 0.000000 0.000000
vn -1.000000 0.000000 0.000000
vn 0.000000 0.000000 -1.000000
vn 0.000000 0.000000 -1.000000
vn 0.000000 0.000000 -1.000000
vn 0.000000 0.000000 -1.000000
vn 1.000000 0.000000 0.000000
vn 1.000000 0.000000 0.000000
vn 1.000000 0.000000 0.000000
vn 1.000000 0.000000 0.000000
vn 0.000000 0.000000 1.000000
vn 0.000000 0.000000 1.000000
vn 0.000000 0.000000 1.000000
vn 0.000000 0.000000 1.000000
vn 0.000000 0.000000 1.000000
vn 0.000000 0.000000 1.000000
vn 0.000000 0.000000 1.000000
vn 0.000000 0.000000 1.000000
vn 1.000000 0.000000 0.000000
vn 1.000000 0.000000 0.000000
vn 1.000000 0.000000 0.000000
vn 1.000000 0.000000 0.000000
vn -1.000000 0.000000 0.000000
vn -1.000000 0.000000 0.000000
vn -1.000000 0.000000 0.000000
vn -1.000000 0.000000 0.000000
vn 1.000000 0.000000 0.000000
vn 1.000000 0.000000 0.000000
vn 1.000000 0.000000 0.000000
vn 1.000000 0.000000 0.000000
vn 0.000000 0.000000 -1.000000
vn 0.000000 0.000000 -1.000000
vn 0.000000 0.000000 -1.000000
vn 0.000000 0.000000 -1.000000
vn -1.000000 0.000000 0.000000
vn -1.000000 0.000000 0.000000
vn -1.000000 0.000000 0.000000
vn -1.000000 0.000000 0.000000
vn 0.000000 0.000000 -1.000000
vn 0.000000 0.000000 -1.000000
vn 0.000000 0.000000 -1.000000
vn 0.000000 0.000000 -1.000000
vn 1.000000 0.000000 0.000000
vn 1.000000 0.000000 0.000000
vn 1.000000 0.000000 0.000000
vn 1.000000 0.000000 0.000000
vn 0.000000 0.000000 1.000000
vn 0.000000 0.000000 1.000000
vn 0.000000 0.000000 1.000000
vn 0.000000 0.000000 1.000000
vn -1.000000 0.000000 0.000000
vn -1.000000 0.000000 0.000000
vn -1.000000 0.000000 0.000000
vn -1.000000 0.000000 0.000000
vn 0.000000 0.000000 1.000000
vn 0.000000 0.000000 1.000000
vn 0.000000 0.000000 1.000000
vn 0.000000 0.000000 1.000000
vn 0.000000 0.000000 1.000000
vn 0.000000 0.000000 1.000000
vn 0.000000 0.000000 1.000000
vn 0.000000 0.000000 1.000000
vn 0.000000 0.000000 1.000000
vn 0.000000 0.000000 1.000000
vn 0.000000 0.000000 1.000000
vn 0.000000 0.000000 1.000000
vn 0.000000 0.000000 1.000000
vn 0.000000 0.000000 1.000000
vn 0.000000 0.000000 1.000000
vn 0.000000 0.000000 1.000000
vn 0.000000 0.000000 1.000000
vn 0.000000 0.000000 1.000000
vn 0.000000 0.000000 1.000000
vn 0.000000 0.000000 1.000000
vn 0.000000 0.000000 1.000000
vn 0.000000 0.000000 1.000000
vn 0.000000 0.000000 1.000000
vn 0.000000 0.000000 1.000000
vn 0.000000 0.000000 1.000000
vn 0.000000 0.000000 1.000000
vn 0.000000 0.000000 1.000000
vn 0.000000 0.000000 1.000000
vn 0.000000 0.000000 1.000000
vn 0.000000 0.000000 1.000000
vn 0.000000 0.000000 1.000000
vn 0.000000 0.000000 1.000000
vn 0.000000 0.000000 1.000000
vn 0.000000 0.000000 1.000000
vn 0.000000 0.000000 1.000000
vn 0.000000 0.000000 1.000000
vn 0.000000 0.000000 1.000000
vn 0.000000 0.000000 1.000000
vn 0.000000 0.000000 1.000000
vn 0.000000 0.000000 1.000000
vn 0.000000 0.000000 1.000000
vn 0.000000 0.000000 1.000000
vn 0.000000 0.000000 1.000000
vn 0.000000 0.000000 1.000000
vn 0.000000 0.000000 1.000000
vn 0.000000 0.000000 1.000000
vn 0.000000 0.000000 1.000000
vn 0.000000 0.000000 1.000000
vn 1.000000 0.000000 0.000000
vn 1.000000 0.000000 0.000000
vn 1.000000 0.000000 0.000000
vn 1.000000 0.000000 0.000000
vn 0.000000 1.000000 0.000000
vn 0.000000 1.000000 0.000000
vn 0.000000 1.000000 0.000000
vn 0.000000 1.000000 0.000000
vn -1.000000 0.000000 0.000000
vn -1.000000 0.000000 0.000000
vn -1.000000 0.000000 0.000000
vn -1.000000 0.000000 0.000000
vn 0.000000 -1.000000 0.000000
vn 0.000000 -1.000000 0.000000
vn 0.000000 -1.000000 0.000000
vn 0.000000 -1.000000 0.000000
vn -1.000000 0.000000 0.000000
vn -1.000000 0.000000 0.000000
vn -1.000000 0.000000 0.000000
vn -1.000000 0.000000 0.000000
vn 0.000000 -1.000000 0.000000
vn 0.000000 -1.000000 0.000000
vn 0.000000 -1.000000 0.000000
vn 0.000000 -1.000000 0.000000
vn 1.000000 0.000000 0.000000
vn 1.000000 0.000000 0.000000
vn 1.000000 0.000000 0.000000
vn 1.000000 0.000000 0.000000
vn 0.000000 1.000000 0.000000
vn 0.000000 1.000000 0.000000
vn 0.000000 1.000000 0.000000
vn 0.000000 1.000000 0.000000
vn 0.000000 1.000000 0.000000
vn 0.000000 1.000000 0.000000
vn 0.000000 1.000000 0.000000
vn 0.000000 1.000000 0.000000
vn -1.000000 0.000000 0.000000
vn -1.000000 0.000000 0.000000
vn -1.000000 0.000000 0.000000
vn -1.000000 0.000000 0.000000
vn 0.000000 -1.000000 0.000000
vn 0.000000 -1.000000 0.000000
vn 0.000000 -1.000000 0.000000
vn 0.000000 -1.000000 0.000000
vn 1.000000 0.000000 0.000000
vn 1.000000 0.000000 0.000000
vn 1.000000 0.000000 0.000000
vn 1.000000 0.000000 0.000000
vn 0.000000 0.000000 -1.000000
vn 0.000000 0.000000 -1.000000
vn 0.000000 0.000000 -1.000000
vn 0.000000 0.000000 -1.000000
vn 0.000000 0.000000 1.000000
vn 0.000000 0.000000 1.000000
vn 0.000000 0.000000 1.000000
vn 0.000000 0.000000 1.000000
vn 0.000000 0.000000 1.000000
vn 0.000000 0.000000 1.000000
vn 0.000000 0.000000 1.000000
vn 0.000000 0.000000 1.000000
vn 0.000000 0.000000 1.000000
vn 0.000000 0.000000 1.000000
vn 0.000000 0.000000 1.000000
vn 0.000000 0.000000 1.000000
vn -1.000000 0.000000 0.000000
vn -1.000000 0.000000 0.000000
vn -1.000000 0.000000 0.000000
vn -1.000000 0.000000 0.000000
vn 0.000000 -1.000000 0.000000
vn 0.000000 -1.000000 0.000000
vn 0.000000 -1.000000 0.000000
vn 0.000000 -1.000000 0.000000
vn 1.000000 0.000000 0.000000
vn 1.000000 0.000000 0.000000
vn 1.000000 0.000000 0.000000
vn 1.000000 0.000000 0.000000
vn 0.000000 0.000000 1.000000
vn 0.000000 0.000000 1.000000
vn 0.000000 0.000000 1.000000
vn 0.000000 0.000000 1.000000
s off
g pCube282
usemtl pCube280SG
f 3/110/1 4/111/2 6/112/3 5/113/4
f 9/107/5 10/118/6 16/7/7 15/100/8
f 38/9/9 37/10/10 39/11/11 40/12/12
f 11/13/13 12/88/14 13/15/15 14/126/16
f 14/16/17 13/125/18 15/8/19 16/103/20
f 17/17/21 18/102/22 23/120/23 24/116/24
f 18/18/25 17/101/26 20/21/27 19/127/28
f 19/22/29 20/123/30 22/23/31 21/92/32
f 42/25/33 41/26/34 43/27/35 44/28/36
f 46/29/37 45/30/38 47/31/39 48/32/40
f 11/13/41 14/126/42 19/22/43 21/92/44
f 16/7/45 10/118/46 23/120/47 18/102/48
f 2/109/49 8/34/50 13/15/51 12/88/52
f 15/8/53 13/125/54 8/124/55 7/35/56
f 7/99/57 1/36/58 9/107/59 15/100/60
f 5/4/61 6/122/62 20/21/63 17/101/64
f 22/23/65 20/123/66 6/3/67 4/2/68
f 24/20/69 22/23/70 4/2/71 3/115/72
f 17/17/73 24/116/74 3/1/75 5/104/76
f 10/73/77 9/117/78 25/84/79 26/75/80
f 9/85/81 12/14/82 27/89/83 25/78/84
f 12/88/85 11/13/86 28/81/87 27/77/88
f 11/80/89 10/6/90 26/74/91 28/76/92
f 21/92/93 22/23/94 29/66/95 30/63/96
f 22/23/97 24/20/98 31/65/99 29/66/100
f 24/20/101 23/121/102 32/93/103 31/65/104
f 23/94/105 21/24/106 30/91/107 32/64/108
f 10/6/109 11/80/110 33/79/111 34/58/112
f 11/13/113 21/92/114 35/90/115 33/62/116
f 21/24/117 23/94/118 36/95/119 35/61/120
f 23/19/121 10/119/122 34/57/123 36/60/124
f 26/38/125 25/83/126 37/10/127 38/9/128
f 25/37/129 27/82/130 39/11/131 37/10/132
f 27/39/133 28/97/134 40/12/135 39/11/136
f 28/40/137 26/96/138 38/9/139 40/12/140
f 30/42/141 29/68/142 41/26/143 42/25/144
f 29/41/145 31/69/146 43/27/147 41/26/148
f 31/43/149 32/67/150 44/28/151 43/27/152
f 32/44/153 30/98/154 42/25/155 44/28/156
f 34/46/157 33/71/158 45/30/159 46/29/160
f 33/45/161 35/72/162 47/31/163 45/30/164
f 35/47/165 36/70/166 48/32/167 47/31/168
f 36/48/169 34/59/170 46/29/171 48/32/172
f 14/16/173 16/103/174 18/18/175 19/127/176
f 2/33/177 12/108/178 51/114/179 50/50/180
f 12/14/181 9/85/182 52/86/183 51/87/184
f 9/5/185 1/106/186 49/52/187 52/51/188
f 50/50/189 51/114/190 54/53/191 53/54/192
f 51/49/193 52/105/194 55/55/195 54/53/196
f 52/51/197 49/52/198 56/56/199 55/55/200
f 53/54/201 54/53/202 55/55/203 56/56/204
